<svg xmlns="http://www.w3.org/2000/svg" width="1400" height="900" viewBox="0 0 1400 900">
  <defs>
    <radialGradient id="bg" cx="50%" cy="40%" r="70%">
      <stop offset="0%" stop-color="#1a0a2e"/>
      <stop offset="60%" stop-color="#0d0d1a"/>
      <stop offset="100%" stop-color="#0a0a0a"/>
    </radialGradient>
    <radialGradient id="glow1" cx="50%" cy="50%" r="50%">
      <stop offset="0%" stop-color="#00ff9d" stop-opacity="0.15"/>
      <stop offset="100%" stop-color="#00ff9d" stop-opacity="0"/>
    </radialGradient>
    <radialGradient id="glow2" cx="50%" cy="50%" r="50%">
      <stop offset="0%" stop-color="#a855f7" stop-opacity="0.12"/>
      <stop offset="100%" stop-color="#a855f7" stop-opacity="0"/>
    </radialGradient>
  </defs>
  <rect width="1400" height="900" fill="url(#bg)"/>
  <ellipse cx="700" cy="350" rx="500" ry="300" fill="url(#glow1)"/>
  <ellipse cx="300" cy="600" rx="350" ry="250" fill="url(#glow2)"/>
  <line x1="0" y1="450" x2="1400" y2="450" stroke="#00ff9d" stroke-opacity="0.04" stroke-width="1"/>
  <line x1="700" y1="0" x2="700" y2="900" stroke="#a855f7" stroke-opacity="0.04" stroke-width="1"/>
  <g fill="#ffffff" fill-opacity="0.04">
    <circle cx="200" cy="200" r="2"/><circle cx="400" cy="200" r="2"/><circle cx="600" cy="200" r="2"/>
    <circle cx="800" cy="200" r="2"/><circle cx="1000" cy="200" r="2"/><circle cx="1200" cy="200" r="2"/>
    <circle cx="200" cy="400" r="2"/><circle cx="400" cy="400" r="2"/><circle cx="600" cy="400" r="2"/>
    <circle cx="800" cy="400" r="2"/><circle cx="1000" cy="400" r="2"/><circle cx="1200" cy="400" r="2"/>
    <circle cx="200" cy="600" r="2"/><circle cx="400" cy="600" r="2"/><circle cx="600" cy="600" r="2"/>
    <circle cx="800" cy="600" r="2"/><circle cx="1000" cy="600" r="2"/><circle cx="1200" cy="600" r="2"/>
  </g>
</svg>
